<svg xmlns="http://www.w3.org/2000/svg" width="69.187" height="13.233" viewBox="0 0 69.187 13.233">
  <g id="Groupe_1" data-name="Groupe 1" transform="translate(-477.102 -347.613)">
    <path id="star-svgrepo-com" d="M7.587,1.462,9.148,4.625a.745.745,0,0,0,.561.408l3.49.507a.745.745,0,0,1,.413,1.271L11.087,9.272a.745.745,0,0,0-.214.66l.6,3.476a.745.745,0,0,1-1.081.786L7.266,12.552a.746.746,0,0,0-.694,0L3.451,14.193a.745.745,0,0,1-1.081-.786l.6-3.476a.745.745,0,0,0-.214-.66L.226,6.81A.745.745,0,0,1,.639,5.539l3.49-.507a.745.745,0,0,0,.561-.408L6.251,1.462A.745.745,0,0,1,7.587,1.462Z" transform="translate(477.102 346.567)" fill="#f7f275"/>
    <path id="star-svgrepo-com-2" data-name="star-svgrepo-com" d="M7.587,1.462,9.148,4.625a.745.745,0,0,0,.561.408l3.49.507a.745.745,0,0,1,.413,1.271L11.087,9.272a.745.745,0,0,0-.214.66l.6,3.476a.745.745,0,0,1-1.081.786L7.266,12.552a.746.746,0,0,0-.694,0L3.451,14.193a.745.745,0,0,1-1.081-.786l.6-3.476a.745.745,0,0,0-.214-.66L.226,6.81A.745.745,0,0,1,.639,5.539l3.49-.507a.745.745,0,0,0,.561-.408L6.251,1.462A.745.745,0,0,1,7.587,1.462Z" transform="translate(490.939 346.567)" fill="#f7f275"/>
    <path id="star-svgrepo-com-3" data-name="star-svgrepo-com" d="M7.587,1.462,9.148,4.625a.745.745,0,0,0,.561.408l3.49.507a.745.745,0,0,1,.413,1.271L11.087,9.272a.745.745,0,0,0-.214.66l.6,3.476a.745.745,0,0,1-1.081.786L7.266,12.552a.746.746,0,0,0-.694,0L3.451,14.193a.745.745,0,0,1-1.081-.786l.6-3.476a.745.745,0,0,0-.214-.66L.226,6.81A.745.745,0,0,1,.639,5.539l3.49-.507a.745.745,0,0,0,.561-.408L6.251,1.462A.745.745,0,0,1,7.587,1.462Z" transform="translate(504.777 346.567)" fill="#f7f275"/>
    <path id="star-svgrepo-com-4" data-name="star-svgrepo-com" d="M7.587,1.462,9.148,4.625a.745.745,0,0,0,.561.408l3.49.507a.745.745,0,0,1,.413,1.271L11.087,9.272a.745.745,0,0,0-.214.66l.6,3.476a.745.745,0,0,1-1.081.786L7.266,12.552a.746.746,0,0,0-.694,0L3.451,14.193a.745.745,0,0,1-1.081-.786l.6-3.476a.745.745,0,0,0-.214-.66L.226,6.81A.745.745,0,0,1,.639,5.539l3.49-.507a.745.745,0,0,0,.561-.408L6.251,1.462A.745.745,0,0,1,7.587,1.462Z" transform="translate(518.614 346.567)" fill="#f7f275"/>
    <path id="star-svgrepo-com-5" data-name="star-svgrepo-com" d="M7.587,1.462,9.148,4.625a.745.745,0,0,0,.561.408l3.49.507a.745.745,0,0,1,.413,1.271L11.087,9.272a.745.745,0,0,0-.214.66l.6,3.476a.745.745,0,0,1-1.081.786L7.266,12.552a.746.746,0,0,0-.694,0L3.451,14.193a.745.745,0,0,1-1.081-.786l.6-3.476a.745.745,0,0,0-.214-.66L.226,6.81A.745.745,0,0,1,.639,5.539l3.49-.507a.745.745,0,0,0,.561-.408L6.251,1.462A.745.745,0,0,1,7.587,1.462Z" transform="translate(532.452 346.567)" fill="#c9c9c9"/>
  </g>
</svg>
